<?xml version="1.0" encoding="UTF-8" standalone="no"?>
<!DOCTYPE svg PUBLIC "-//W3C//DTD SVG 1.0//EN" "http://www.w3.org/TR/2001/REC-SVG-20010904/DTD/svg10.dtd">
<svg
   xmlns:svg="http://www.w3.org/2000/svg"
   xmlns="http://www.w3.org/2000/svg"
   xmlns:xlink="http://www.w3.org/1999/xlink"
   version="1.0"
   width="200"
   height="200"
   id="svg2443"
   xml:space="preserve"><defs
     id="defs2446"><clipPath
       id="clipPath2458"><path
         d="M 0,841 L 595,841 L 595,0 L 0,0 L 0,841 z"
         id="path2460" /></clipPath><clipPath
       id="clipPath2464"><path
         d="M 0.06,841.98 L 595.38,841.98 L 595.38,0.06 L 0.06,0.06 L 0.06,841.98 z"
         id="path2466" /></clipPath><clipPath
       id="clipPath2474"><path
         d="M 510.236,38.619 L 566.929,38.619 L 566.929,18.776 L 510.236,18.776 L 510.236,38.619 z"
         id="path2476" /></clipPath><clipPath
       id="clipPath2488"><path
         d="M 0,841 L 595,841 L 595,0 L 0,0 L 0,841 z"
         id="path2490" /></clipPath><clipPath
       id="clipPath2494"><path
         d="M 0.06,841.98 L 595.38,841.98 L 595.38,0.06 L 0.06,0.06 L 0.06,841.98 z"
         id="path2496" /></clipPath><clipPath
       id="clipPath2508"><path
         d="M 415.179,818.914 L 567.929,818.914 L 567.929,793.811 L 415.179,793.811 L 415.179,818.914 z"
         id="path2510" /></clipPath><clipPath
       id="clipPath2524"><path
         d="M 0,841 L 595,841 L 595,0 L 0,0 L 0,841 z"
         id="path2526" /></clipPath><clipPath
       id="clipPath2530"><path
         d="M 0.06,841.98 L 595.38,841.98 L 595.38,0.06 L 0.06,0.06 L 0.06,841.98 z"
         id="path2532" /></clipPath><clipPath
       id="clipPath2618"><path
         d="M 0,841 L 595,841 L 595,0 L 0,0 L 0,841 z"
         id="path2620" /></clipPath><clipPath
       id="clipPath2624"><path
         d="M 0.06,841.98 L 595.38,841.98 L 595.38,0.06 L 0.06,0.06 L 0.06,841.98 z"
         id="path2626" /></clipPath><clipPath
       id="clipPath2842"><path
         d="M 212.598,713.211 L 566.929,713.211 L 566.929,461.158 L 212.598,461.158 L 212.598,713.211 z"
         id="path2844" /></clipPath><clipPath
       id="clipPath2848"><path
         d="M 0,841 L 595,841 L 595,0 L 0,0 L 0,841 z"
         id="path2850" /></clipPath><clipPath
       id="clipPath2854"><path
         d="M 0.06,841.98 L 595.38,841.98 L 595.38,0.06 L 0.06,0.06 L 0.06,841.98 z"
         id="path2856" /></clipPath><clipPath
       id="clipPath2866"><path
         d="M 383.751,18.953 L 498.911,18.953 L 498.911,38.798 L 383.751,38.798 L 383.751,18.953 z"
         id="path2868" /></clipPath><clipPath
       id="clipPath2872"><path
         d="M 383.751,38.795 L 498.896,38.795 L 498.896,18.953 L 383.751,18.953 L 383.751,38.795 z"
         id="path2874" /></clipPath><clipPath
       id="clipPath2878"><path
         d="M 0,841 L 595,841 L 595,0 L 0,0 L 0,841 z"
         id="path2880" /></clipPath><clipPath
       id="clipPath2884"><path
         d="M 0.06,841.98 L 595.38,841.98 L 595.38,0.06 L 0.06,0.06 L 0.06,841.98 z"
         id="path2886" /></clipPath></defs><g
     transform="matrix(1.25,0,0,-1.25,-47.5225,963.35)"
     id="g2452"><g
       transform="translate(4.8326616,-4.5104842)"
       id="g2890"><path
         d="M 188.698,695.339 C 188.698,653.732 154.965,619.999 113.358,619.999 C 71.749,619.999 38.018,653.732 38.018,695.339 C 38.018,736.949 71.749,770.68 113.358,770.68 C 154.965,770.68 188.698,736.949 188.698,695.339"
         id="path2608"
         style="fill:#2056ae;fill-opacity:1;fill-rule:nonzero;stroke:none" /><path
         d="M 183.273,695.698 C 183.273,657.001 151.9,625.631 113.205,625.631 C 74.509,625.631 43.14,657.001 43.14,695.698 C 43.14,734.393 74.509,765.763 113.205,765.763 C 151.9,765.763 183.273,734.393 183.273,695.698"
         id="path2610"
         style="fill:#ffffff;fill-opacity:1;fill-rule:nonzero;stroke:none" /><path
         d="M 125.881,676.158 C 111.721,688.47 115.722,712.79 134.807,718.946 C 153.89,725.102 163.435,707.557 163.435,707.557 L 176.559,707.557 C 170.99,737.49 144.753,760.158 113.205,760.158 C 77.604,760.158 48.744,731.298 48.744,695.698 C 48.744,660.095 77.604,631.235 113.205,631.235 C 144.239,631.235 170.143,653.169 176.281,682.377 L 162.819,682.623 C 156.664,672.463 140.038,663.846 125.881,676.158 z M 155.43,728.18 C 153.584,729.412 150.198,730.643 150.198,730.643 C 154.508,732.797 157.279,726.949 155.43,728.18 z M 106.794,699.554 L 90.787,699.554 L 90.787,730.643 L 134.192,730.643 C 108.949,722.331 106.794,699.554 106.794,699.554 z M 79.705,652.761 C 79.705,652.761 33.839,693.395 79.705,737.724 L 79.705,652.761 z M 140.963,742.033 L 85.862,742.033 C 115.413,761.734 140.963,742.033 140.963,742.033 z M 90.787,646.3 L 90.787,689.595 L 106.794,689.595 C 119.721,650.192 156.045,661.997 156.045,661.997 C 126.187,624.752 90.787,646.3 90.787,646.3"
         id="path2612"
         style="fill:#2056ae;fill-opacity:1;fill-rule:nonzero;stroke:none" /></g></g></svg>